PathFileType	4	(X/Y/Z)	C:/Users/beibeiliu/ov580/test_trc/capture2\sequence.33_training_dense_right.trc
DataRate	CameraRate	NumFrames	NumMarkers	Units	OrigDataRate	OrigDataStartFrame	OrigNumFrames
120	120	10	19	mm	120	211	336
Frame#	Time	ThumbCMC			ThumbMCP			ThumbIP			ThumbTip			IndexMCP			IndexPIP			IndexTip			MiddleMCP			MiddlePIP			MiddleTip			RingMCP			RingPIP			RingTip			PinkyMCP			PinkyPIP			PinkyTip			BackHand1			BackHand2			BackHand3	
		X0	Y0	Z0	X1	Y1	Z1	X2	Y2	Z2	X3	Y3	Z3	X4	Y4	Z4	X5	Y5	Z5	X6	Y6	Z6	X7	Y7	Z7	X8	Y8	Z8	X9	Y9	Z9	X10	Y10	Z10	X11	Y11	Z11	X12	Y12	Z12	X13	Y13	Z13	X14	Y14	Z14	X15	Y15	Z15	X16	Y16	Z16	X17	Y17	Z17	X18	Y18	Z18	
210	1.75	156.231	41.8438	54.1486	141.453	72.3946	47.578	125.069	90.8854	35.9095	106.547	96.0645	27.3179	131.542	56.8961	-16.0696	115.08	75.2635	-28.4434	93.4254	100.651	-19.2779	103.173	44.7639	-18.1984	86.0918	69.7242	-20.3621	73.3228	87.9925	4.65132	89.9214	35.5045	-3.87087	74.3658	63.1004	7.78908	83.8452	70.2768	37.666	78.9819	25.5514	13.38	74.1412	50.7444	31.0017	97.562	47.2038	50.9635	122.34	0.137865	22.531	136.017	-15.3151	47.8397	152.124	11.4795	30.9435	
211	1.75833	158.011	45.9798	53.7302	146.067	75.5363	51.7397	128.255	95.2678	37.2279	104.229	99.253	25.1133	130.909	58.0149	-17.0849	115.921	78.2022	-29.1704	93.686	101.118	-19.4943	107.686	44.1316	-16.966	86.1246	66.974	-20.5373	73.5311	88.3974	4.58215	89.1005	40.0461	-5.34849	70.6175	62.2938	7.89657	80.687	67.8651	39.1203	76.7479	28.9529	12.8981	72.7233	50.097	28.823	98.3407	44.5887	52.9447	121.158	0.407734	19.8385	131.546	-14.7871	48.9428	149.671	10.9762	28.8821	
212	1.76667	157.012	46.5914	52.7732	142.756	71.8888	51.3022	128.196	95.4985	37.9608	102.844	98.1688	24.6118	132.282	57.1431	-16.5459	117.89	76.6313	-28.3582	94.7911	100.558	-21.5033	104.728	44.668	-19.4168	87.9603	67.4623	-21.792	72.8215	87.542	3.76336	84.4517	38.0217	-6.14899	72.6732	63.8805	7.13122	81.4943	68.9731	38.3827	75.2428	30.2872	12.4847	73.8429	51.7108	32.1336	98.093	42.896	51.9046	121.018	-1.67211	20.9521	132.288	-11.7436	46.3152	150.735	12.2119	30.4995	
213	1.775	155.72	44.4473	54.9028	141.964	75.9207	48.503	125.053	94.4179	36.396	100.358	95.6045	22.2479	133.859	55.3508	-13.3762	118.897	76.8609	-28.8377	95.3027	100.782	-22.6268	108.333	42.3537	-17.1915	86.5291	67.4116	-23.0259	71.265	87.4404	6.59305	89.6208	39.8479	-7.19869	72.956	61.6205	4.41105	84.3291	70.7832	37.4142	77.9905	28.3549	10.9552	72.5098	50.3332	30.8018	96.6258	46.4222	48.0975	121.415	-3.74722	23.5357	132	-15.248	49.9007	152.905	10.9134	34.4573	
214	1.78333	156.317	46.5447	57.4015	140.973	73.0037	51.6084	124.546	95.7506	35.4732	102.914	98.4424	23.2538	134.386	57.1397	-14.7596	117.864	76.2881	-29.3073	96.4835	99.1775	-23.3009	110.581	45.1064	-18.4407	87.1109	64.4213	-24.3092	74.3676	89.2245	1.124	91.4115	39.6676	-8.77183	73.3201	63.6363	2.93496	80.0098	70.6375	33.8033	76.9155	27.9298	8.79375	74.4927	52.3174	27.0275	96.9858	47.2101	46.9461	119.398	-2.10745	20.2189	130.656	-15.5253	46.8003	150.156	11.5097	35.3349	
215	1.79167	153.946	49.1553	56.8545	138.114	77.1387	48.6075	123.712	94.3304	35.6502	102.271	98.8571	19.8158	133.738	57.8871	-16.3766	118.992	79.578	-30.8673	96.2419	98.2932	-24.4449	112.848	47.9	-20.6071	90.5466	66.2454	-26.7564	72.2778	87.7901	-0.878523	91.0622	37.2599	-9.4223	76.0828	64.6657	0.448629	80.7641	71.4779	28.8625	80.5614	28.9996	5.11381	70.9721	50.4039	23.2422	92.5608	50.1397	46.1656	124.25	0.218984	22.5187	133.884	-11.4565	48.3815	154.382	16.2104	33.4519	
216	1.8	153.838	54.5007	59.1703	135.243	78.8003	50.8638	118.604	95.3936	33.4717	99.5859	99.2632	16.503	138.621	61.2399	-14.0434	121.786	80.1847	-30.2247	95.6187	97.6987	-26.0847	118.296	47.3479	-18.2168	90.865	69.2764	-26.4872	76.9659	90.3248	-5.13144	96.7719	40.4106	-12.8817	77.0434	61.1263	-4.80673	83.013	71.1101	28.8312	83.8293	28.3351	3.32259	76.3096	52.1783	18.6496	95.6963	47.3305	44.953	128.337	4.06959	19.7119	134.61	-9.51076	46.3965	153.525	18.0088	38.7293	
217	1.80833	151.481	56.5505	61.1489	134.284	83.6633	52.6555	117.305	100.949	32.9026	99.2811	99.2325	18.2836	143.76	65.2035	-13.4934	126.202	84.7824	-30.6214	98.3036	100.255	-27.1831	118.372	49.1496	-21.9439	94.798	68.379	-29.2572	75.2183	88.7535	-5.12839	100.349	40.9938	-14.6398	77.9569	61.229	-5.83254	82.6967	71.7301	25.1206	86.941	27.7053	0.615716	75.4594	50.3073	15.0866	94.9442	52.9959	39.5856	129.353	5.4604	23.317	137.342	-6.30496	46.446	155.455	22.8222	38.1141	
218	1.81667	150.032	58.8584	61.6019	129.931	85.3876	50.7417	114.62	103.003	31.9622	97.841	103.739	14.4039	145.842	67.7889	-12.6299	128.731	87.2212	-30.4056	98.934	100.585	-29.4377	125.934	52.6209	-21.7394	98.6064	70.8072	-31.6976	77.0857	89.4961	-8.92353	104.116	43.0264	-16.3634	81.1423	60.4154	-11.0726	82.9595	69.6078	22.4368	94.2494	29.2746	-2.63228	75.0685	49.1846	9.74328	98.2469	53.1336	36.3643	135.755	6.49761	23.192	142.559	-2.70645	49.2038	156.651	24.2408	38.113	
219	1.825	146.535	60.9803	63.6539	127.178	89.0613	52.9023	112.287	104.09	31.6852	95.9013	104.035	13.3977	146.466	67.8127	-11.1017	129.559	87.5216	-31.0931	104.84	100.857	-32.2297	129.559	54.036	-23.2852	105.928	71.0337	-33.6043	81.9648	89.3454	-14.8492	107.192	42.089	-17.9312	86.6618	62.7954	-11.8068	86.3987	70.299	21.6422	97.0813	31.9393	-6.46986	80.7574	50.5568	4.296	95.3333	53.2062	33.6578	136.88	9.8709	22.9017	143.241	1.44207	50.5477	158.899	29.9778	44.2218	
